<svg xmlns="http://www.w3.org/2000/svg" xmlns:xlink="http://www.w3.org/1999/xlink" version="1.1" x="0px" y="0px" viewBox="0 0 64 80" style="enable-background:new 0 0 64 64;" xml:space="preserve"><g><path d="M63,19.777v-7.555l-2.802-0.713c-0.119-0.319-0.253-0.639-0.4-0.957l1.479-2.489l-5.342-5.342l-2.489,1.48   c-0.317-0.147-0.638-0.281-0.956-0.4L51.777,1h-7.555L43.51,3.802c-0.318,0.119-0.639,0.252-0.956,0.4l-2.489-1.48l-5.342,5.342   l1.479,2.489c-0.147,0.318-0.281,0.637-0.4,0.957L33,12.223V13H4c-1.654,0-3,1.346-3,3v40c0,1.654,1.346,3,3,3h5.586l3.325,3.326   C13.34,62.754,13.934,63,14.54,63h0.157C15.967,63,17,61.967,17,60.697V59h16v4h30V37.303C63,36.033,61.967,35,60.697,35   c-0.772,0-1.488,0.383-1.916,1.025L57,38.697V28.213l4.277-4.278l-1.479-2.489c0.147-0.317,0.281-0.637,0.4-0.956L63,19.777z M4,15   h29v4.777l2.802,0.713c0.119,0.319,0.253,0.639,0.4,0.956l-1.479,2.489L35.787,25H3v-9C3,15.449,3.448,15,4,15z M15,57v3.697   C15,60.864,14.864,61,14.697,61H14.54c-0.08,0-0.158-0.032-0.215-0.088L10.414,57H4c-0.552,0-1-0.449-1-1V27h34.787l2,2H33v10h20   V29h-0.714l0.204-0.802c0.318-0.119,0.639-0.252,0.956-0.4L55,28.722V41H33v16H15z M51,31v6H35v-6H51z M40.532,29l2.022-1.202   c0.317,0.147,0.638,0.281,0.956,0.4L43.714,29H40.532z M52.701,52.713L61,44.414v15.412L52.701,52.713z M51.185,54.047L59.297,61   H36.703l8.112-6.953C45.757,54.66,46.869,55,48,55S50.244,54.66,51.185,54.047z M35,59.826V44.414l8.299,8.299L35,59.826z    M60.445,37.135L60.445,37.135C60.596,36.912,61,37.034,61,37.303v4.283L50.707,51.879C49.994,52.591,49.008,53,48,53   s-1.994-0.409-2.707-1.121L36.414,43h20.121L60.445,37.135z M58.764,23.621l-3.143,3.143l-2.095-1.246l-0.492,0.254   c-0.56,0.289-1.126,0.525-1.686,0.704l-0.528,0.169L50.223,29h-4.445l-0.598-2.354l-0.528-0.169   c-0.56-0.179-1.126-0.415-1.686-0.704l-0.492-0.254l-2.095,1.246l-3.143-3.143l1.246-2.096l-0.256-0.493   c-0.288-0.558-0.525-1.124-0.704-1.683l-0.168-0.528L35,18.223v-4.445l2.354-0.599l0.168-0.528   c0.179-0.558,0.416-1.125,0.705-1.683l0.255-0.493l-1.246-2.095l3.143-3.143l2.095,1.246l0.492-0.254   c0.56-0.289,1.126-0.525,1.686-0.704l0.528-0.169L45.777,3h4.445l0.598,2.354l0.528,0.169c0.56,0.179,1.126,0.415,1.686,0.704   l0.492,0.254l2.095-1.246l3.143,3.143l-1.246,2.095l0.255,0.493c0.289,0.559,0.526,1.125,0.705,1.683l0.168,0.528L61,13.777v4.445   l-2.354,0.599l-0.168,0.528c-0.179,0.559-0.416,1.125-0.704,1.683l-0.256,0.493L58.764,23.621z" fill="#ffbc5e"/><path d="M48,7c-4.963,0-9,4.038-9,9s4.037,9,9,9s9-4.038,9-9S52.963,7,48,7z M48,23c-3.859,0-7-3.14-7-7s3.141-7,7-7s7,3.14,7,7   S51.859,23,48,23z" fill="#ffbc5e"/><path d="M48,11c-2.757,0-5,2.243-5,5s2.243,5,5,5s5-2.243,5-5S50.757,11,48,11z M48,19c-1.654,0-3-1.346-3-3s1.346-3,3-3   s3,1.346,3,3S49.654,19,48,19z" fill="#ffbc5e"/><path d="M11,17H5v6h6V17z M9,21H7v-2h2V21z" fill="#ffbc5e"/><path d="M19,17h-6v6h6V17z M17,21h-2v-2h2V21z" fill="#ffbc5e"/><path d="M27,17h-6v6h6V17z M25,21h-2v-2h2V21z" fill="#ffbc5e"/><rect x="5" y="29" width="2" height="2" fill="#ffbc5e"/><rect x="9" y="29" width="22" height="2" fill="#ffbc5e"/><rect x="5" y="33" width="26" height="2" fill="#ffbc5e"/><rect x="5" y="37" width="2" height="2" fill="#ffbc5e"/><rect x="9" y="37" width="2" height="2" fill="#ffbc5e"/><rect x="13" y="37" width="18" height="2" fill="#ffbc5e"/><rect x="5" y="41" width="26" height="2" fill="#ffbc5e"/><path d="M5,55h26V45H5V55z M7,47h22v6H7V47z" fill="#ffbc5e"/></g><text x="0" y="79" fill="#ffbc5e" font-size="5px" font-weight="bold" font-family="'Helvetica Neue', Helvetica, Arial-Unicode, Arial, Sans-serif"></text><text x="0" y="84" fill="#ffbc5e" font-size="5px" font-weight="bold" font-family="'Helvetica Neue', Helvetica, Arial-Unicode, Arial, Sans-serif">from the Noun Project</text></svg>