<svg xmlns="http://www.w3.org/2000/svg" version="1.1" viewBox="-5.0 -10.0 110.0 135.0">
 <path d="m29.395 32.676c0-0.67969 0.55078-1.2305 1.2305-1.2344h22.199c0.33203-0.007812 0.65625 0.11719 0.89453 0.34766 0.23828 0.23438 0.375 0.55469 0.375 0.88672s-0.13672 0.65234-0.375 0.88672c-0.23828 0.23047-0.5625 0.35547-0.89453 0.34766h-22.199c-0.67969-0.003906-1.2305-0.55469-1.2305-1.2344zm1.2305 6.4805h22.199c0.33203 0.011719 0.65625-0.11328 0.89453-0.34766 0.23828-0.23047 0.375-0.55078 0.375-0.88672 0-0.33203-0.13672-0.65234-0.375-0.88281-0.23828-0.23437-0.5625-0.35937-0.89453-0.34766h-22.199c-0.33203-0.011718-0.65625 0.11328-0.89453 0.34766-0.24219 0.23047-0.375 0.55078-0.375 0.88281 0 0.33594 0.13281 0.65625 0.375 0.88672 0.23828 0.23438 0.5625 0.35938 0.89453 0.34766zm-15.703 0.29688v-7.8711c0-0.32812 0.12891-0.64062 0.36328-0.87109 0.23047-0.23438 0.54297-0.36328 0.87109-0.36328h7.8711c0.32812 0 0.64453 0.12891 0.875 0.36328 0.23047 0.23047 0.35938 0.54297 0.35938 0.87109v7.8711c0 0.68359-0.55078 1.2344-1.2344 1.2344h-7.8672c-0.32422 0-0.64062-0.12891-0.87109-0.35938-0.23047-0.23438-0.36328-0.54688-0.36328-0.875zm2.4688-1.2344h5.4023v-5.4062h-5.3984zm13.23 12.387h22.203c0.33203 0.007812 0.65625-0.11719 0.89453-0.34766 0.23828-0.23437 0.375-0.55469 0.375-0.88672 0-0.33203-0.13672-0.65234-0.375-0.88672-0.23828-0.23047-0.5625-0.35547-0.89453-0.34766h-22.199c-0.33203-0.007813-0.65625 0.11719-0.89453 0.34766-0.24219 0.23438-0.375 0.55469-0.375 0.88672 0 0.33203 0.13281 0.65234 0.375 0.88672 0.23828 0.23047 0.5625 0.35547 0.89453 0.34766zm0 5.2461h22.203c0.67969 0 1.2344-0.55078 1.2344-1.2344 0-0.67969-0.55469-1.2344-1.2344-1.2344h-22.199c-0.68359 0-1.2344 0.55469-1.2344 1.2344 0 0.68359 0.55078 1.2344 1.2344 1.2344zm-15.695 0.29297v-7.8672c0-0.32812 0.13281-0.64062 0.36328-0.87109 0.23047-0.23438 0.54688-0.36328 0.87109-0.36328h7.875c0.32422 0 0.64062 0.13281 0.87109 0.36328s0.35938 0.54297 0.35938 0.87109v7.8672c0 0.68359-0.55078 1.2344-1.2305 1.2344h-7.875c-0.32422 0-0.64062-0.12891-0.87109-0.35938-0.23047-0.23438-0.36328-0.54688-0.36328-0.875zm2.4688-1.2344h5.4023l0.003906-5.3984h-5.4062zm13.23 12.387h19.375c0.33203 0.007813 0.65625-0.11719 0.89453-0.34766 0.24219-0.23438 0.375-0.55078 0.375-0.88672 0-0.33203-0.13281-0.65234-0.375-0.88672-0.23828-0.23047-0.5625-0.35547-0.89453-0.34766h-19.375c-0.33203-0.007813-0.65625 0.11719-0.89453 0.34766-0.24219 0.23438-0.375 0.55469-0.375 0.88672 0 0.33594 0.13281 0.65234 0.375 0.88672 0.23828 0.23047 0.5625 0.35547 0.89453 0.34766zm0 5.2461h19.375c0.68359 0 1.2344-0.55078 1.2344-1.2344 0-0.67969-0.55078-1.2344-1.2344-1.2344h-19.375c-0.68359 0-1.2344 0.55469-1.2344 1.2344 0 0.68359 0.55078 1.2344 1.2344 1.2344zm-15.703 0.29688v-7.8672c0-0.32422 0.12891-0.64062 0.36328-0.87109 0.23047-0.23047 0.54297-0.36328 0.87109-0.36328h7.8711c0.32812 0 0.64453 0.13281 0.875 0.36328 0.23047 0.23047 0.35938 0.54688 0.35938 0.87109v7.875c0 0.67969-0.55078 1.2305-1.2344 1.2305h-7.8672c-0.32422 0-0.64062-0.12891-0.87109-0.35938-0.23047-0.23047-0.36328-0.54688-0.36328-0.87109zm2.4688-1.2344h5.4023v-5.3984h-5.3984zm60.031 1.3555c0 1.2617-0.69531 2.418-1.8086 3.0078-1.1133 0.58594-2.4609 0.51172-3.5039-0.19922-1.0391-0.71094-1.6016-1.9375-1.4609-3.1914 0.14453-1.25 0.96875-2.3203 2.1406-2.7773v-6.8242c0-0.68359 0.55469-1.2344 1.2344-1.2344 0.68359 0 1.2344 0.55078 1.2344 1.2344v6.8281c1.3047 0.50781 2.1641 1.7617 2.168 3.1602zm-2.4688 0c0-0.375-0.22656-0.71484-0.57422-0.85547-0.34375-0.14453-0.74609-0.066407-1.0117 0.19922-0.26563 0.26562-0.34375 0.66406-0.19922 1.0117s0.48047 0.57422 0.85547 0.57422c0.51562 0 0.92969-0.41406 0.93359-0.92578zm15.879-0.011719c0 4.4531-1.7695 8.7266-4.9219 11.879-3.1484 3.1484-7.4219 4.918-11.879 4.918-4.4531 0-8.7266-1.7695-11.875-4.9219-3.1523-3.1484-4.9219-7.4219-4.9219-11.875 0-4.457 1.7695-8.7305 4.918-11.879 3.1484-3.1523 7.4219-4.9219 11.875-4.9258 4.457 0.003907 8.7305 1.7773 11.879 4.9258 3.1523 3.1523 4.9219 7.4219 4.9258 11.879zm-2.4688 0h0.003907c0-5.7969-3.4922-11.023-8.8477-13.238-5.3555-2.2188-11.52-0.99609-15.617 3.1016s-5.3281 10.262-3.1094 15.617c2.2148 5.3555 7.4414 8.8477 13.234 8.8516 3.8008-0.003906 7.4453-1.5156 10.133-4.2031 2.6836-2.6875 4.1953-6.3281 4.1992-10.129zm6.2852 0c0.003906 4.8633-1.7109 9.5742-4.8477 13.293-3.1328 3.7227-7.4844 6.2148-12.281 7.0352-4.793 0.82031-9.7266-0.082032-13.918-2.5469h-53.707c-2.5039-0.003907-4.5352-2.0352-4.5391-4.543v-67.945c0.003906-2.5039 2.0352-4.5352 4.5391-4.5391h17.348c0.26172-1.1953 1.3203-2.0469 2.543-2.0508h2.6289l-0.003906-1.6914c0-1.9492 1.5781-3.5273 3.5273-3.5273 1.9453 0 3.5234 1.5781 3.5234 3.5273v1.6953h2.6289v-0.003906c1.2227 0.003906 2.2773 0.85547 2.5391 2.0508h17.352c2.5039 0 4.5352 2.0312 4.5391 4.5391v35.508c1.2617-0.49609 2.5703-0.86328 3.9062-1.1016v-2.1211h-0.10547c-1.2109 0-2.1953-0.98047-2.1953-2.1953v-1.8828c0-1.2109 0.98438-2.1914 2.1953-2.1953h7.418c1.2148 0 2.1953 0.98438 2.1953 2.1953v1.8828c0 1.2148-0.98047 2.1953-2.1953 2.1953h-0.10547v2.1211h0.003907c4.7656 0.85547 9.0781 3.3555 12.188 7.0625 3.1094 3.7109 4.8164 8.3984 4.8203 13.238zm-24.059-24.891h6.875v-1.3359h-6.875zm2.3008 4.3047c0.375-0.019531 0.75391-0.03125 1.1367-0.03125 0.38281 0 0.76172 0.011719 1.1367 0.03125l0.003907-1.8359h-2.2773zm-10.91-36.191h-17.293v1.7227h16.402c0.32812 0 0.64453 0.12891 0.875 0.36328 0.23047 0.23047 0.35938 0.54297 0.35938 0.87109v36.859c0.55469-0.38281 1.1289-0.74219 1.7227-1.0703v-36.668l0.003906-0.003906c0-1.1445-0.92578-2.0742-2.0703-2.0742zm-49.965 4.1914v63.699h44.656c-2.5898-4.0352-3.6875-8.8516-3.1055-13.609 0.58203-4.7617 2.8047-9.1719 6.2891-12.465v-37.625h-15.277c-0.33594 1.0977-1.3438 1.8438-2.4883 1.8477h-12.305c-1.1445-0.003907-2.1562-0.75-2.4922-1.8477zm17.637-0.75781c0 0.074219 0.058594 0.13672 0.13281 0.13672h12.305c0.074218 0 0.13281-0.0625 0.13281-0.13672v-5.3477c0-0.074218-0.058594-0.13672-0.13281-0.13672h-3.8594c-0.68359 0-1.2344-0.55078-1.2344-1.2344v-2.9258c-0.019532-0.57031-0.48828-1.0234-1.0586-1.0234s-1.0391 0.45312-1.0547 1.0234v2.9297-0.003906c0 0.32812-0.13281 0.64453-0.36328 0.875s-0.54688 0.36328-0.875 0.35938h-3.8594c-0.074218 0-0.13281 0.0625-0.13281 0.13672zm30.586 68.645-0.003906 0.003906c-0.59766-0.54297-1.168-1.1172-1.6992-1.7266h-47.754c-0.67969 0-1.2344-0.55078-1.2344-1.2344v-66.164c0-0.32812 0.12891-0.64062 0.36328-0.87109 0.23047-0.23437 0.54297-0.36328 0.87109-0.36328h16.406v-1.7227h-17.293c-1.1445 0-2.0703 0.92578-2.0703 2.0703v67.941c0 1.1445 0.92578 2.0742 2.0703 2.0742zm31.941-15.312-0.003907 0.003906c0-4.8125-1.9141-9.4297-5.3203-12.832-3.4023-3.3984-8.0195-5.3125-12.832-5.3086-4.8125 0-9.4258 1.9141-12.828 5.3164-3.4023 3.4062-5.3164 8.0195-5.3125 12.832 0 4.8125 1.9102 9.4297 5.3164 12.832 3.4023 3.4023 8.0156 5.3164 12.828 5.3164 4.8125-0.007812 9.4258-1.9219 12.828-5.3242 3.4023-3.4023 5.3164-8.0117 5.3203-12.824z" fill="#ffbc5e"/>
<text x="0.0" y="117.5" font-size="5.0" font-weight="bold" font-family="Arbeit Regular, Helvetica, Arial-Unicode, Arial, Sans-serif" fill="#ffbc5e"></text><text x="0.0" y="122.5" font-size="5.0" font-weight="bold" font-family="Arbeit Regular, Helvetica, Arial-Unicode, Arial, Sans-serif" fill="#ffbc5e"></text></svg>