<svg xmlns="http://www.w3.org/2000/svg" version="1.1" viewBox="-5.0 -10.0 110.0 135.0">
 <path d="m43.977 38.172h-26.305c-2.3086-0.007813-4.1758-1.8789-4.1836-4.1875v-26.676c0.007813-2.3086 1.875-4.1758 4.1836-4.1836h34.168c2.3047 0.007812 4.1758 1.875 4.1836 4.1836v22.656h2.7109v-11.684c0-0.69141 0.55859-1.25 1.25-1.25h6.4336-0.003907c0.4375 0 0.83984 0.22656 1.0703 0.59766 0.80469-0.22656 1.5469-0.64453 2.1641-1.2148 0.80078-0.73828 1.4844-1.8359 1.8203-3.4141 0.19531-0.89062 0.875-1.4648 1.7383-1.6797 0.75-0.19531 2.0664-0.09375 2.7695 0.36719 1.2891 0.73438 1.9531 2.3047 2.1484 4.0156v0.003906c0.12891 1.1055 0.09375 2.2227-0.097656 3.3164l0.6875-0.050782c1.7578-0.13281 3.4883-0.26562 4.8672 0.027344 2.0898 0.4375 3.3086 1.6094 2.7344 4.3281l-1.5625 7.4219h-0.003906c1.1016 0.78125 1.7578 2.0469 1.7578 3.3945v26.688c-0.003906 2.3086-1.8711 4.1758-4.1797 4.1836h-2.2969l-3.2344 8.9961c-0.12109 0.41406-0.44922 0.73828-0.86328 0.85156-0.41797 0.11719-0.86328 0.007813-1.1836-0.28516l-10.273-9.5625h-6.2734c2.9922 6.0508 3.0469 13.141 0.14062 19.234-2.9023 6.0898-8.4414 10.516-15.027 12.004-6.582 1.4844-13.484-0.13281-18.727-4.3867-5.2383-4.2539-8.2383-10.68-8.1328-17.43 0.10156-6.7461 3.2969-13.074 8.6641-17.168 5.3711-4.0938 12.316-5.4961 18.852-3.8086zm-20.312 49.461v-0.003906c3.7148-4.293 9.1094-6.7578 14.785-6.7578s11.07 2.4648 14.785 6.7578h-0.003906c3.293-3.8008 5-8.7188 4.7578-13.742-0.23828-5.0195-2.4023-9.7578-6.0391-13.227s-8.4727-5.4062-13.5-5.4062c-5.0273 0-9.8633 1.9375-13.5 5.4062s-5.8008 8.207-6.0391 13.227c-0.24219 5.0234 1.4648 9.9414 4.7539 13.742zm27.812 1.7773 0.003907-0.003906c-3.2461-3.832-8.0117-6.0391-13.031-6.0391s-9.7852 2.207-13.031 6.0391c3.5859 3.2031 8.2227 4.9727 13.031 4.9727 4.8086 0 9.4453-1.7695 13.031-4.9727zm-13.031-29.176c-3.4141-0.003906-6.4922 2.0508-7.8008 5.2031-1.3086 3.1523-0.58594 6.7812 1.8242 9.1953 2.4141 2.418 6.043 3.1367 9.1992 1.832 3.1523-1.3047 5.207-4.3828 5.207-7.7969 0-4.6602-3.7773-8.4336-8.4375-8.4336zm0 2.4922c-2.4062 0-4.5703 1.4492-5.4922 3.668-0.91797 2.2188-0.41016 4.7773 1.2891 6.4766 1.6992 1.6992 4.2539 2.207 6.4766 1.2852 2.2188-0.91797 3.6641-3.0859 3.6641-5.4883 0-1.5742-0.625-3.0859-1.7383-4.2031-1.1133-1.1133-2.625-1.7383-4.1992-1.7383zm18.312-0.20703h8.2031c0.33984 0 0.67187 0.14062 0.90625 0.39062l9.1953 8.5547 2.9219-8.1211c0.17578-0.49219 0.64453-0.82422 1.1719-0.82031h3.168v-0.003907c0.92969 0 1.6836-0.75391 1.6875-1.6875v-26.676c0-0.32422-0.09375-0.63672-0.26953-0.90625-0.70313 0.80078-1.7188 1.2578-2.7891 1.2578h-12.367c-0.42188-0.003906-0.83984-0.066406-1.2422-0.1875-0.23438 0.26563-0.57422 0.41797-0.92969 0.41406l-6.4297 0.003906c-0.69141 0-1.25-0.55859-1.25-1.2461v-1.0234h-10.57c-0.93359 0-1.6875 0.75391-1.6875 1.6875v20.117c4.1836 1.6406 7.7695 4.5195 10.281 8.25zm10.906-42.383v11.645c0.28516 0.15234 0.59766 0.23047 0.92188 0.22656h12.375c0.57812 0.011719 1.082-0.39453 1.1953-0.96484l1.7305-8.2148c0.1875-0.88281-0.17969-1.25-0.80469-1.3828-1.0234-0.21484-2.5859-0.097656-4.1719 0.023438-0.82031 0.0625-1.6484 0.125-2.5391 0.14453-1.4609 0.023438-1.2891-1.2383-0.97656-2.1914 0.31641-1.1055 0.40625-2.2656 0.26172-3.4062-0.11719-0.97656-0.39062-1.8438-0.875-2.1367-0.28516-0.14062-0.60547-0.1875-0.92188-0.13672-0.47656 2.0312-1.418 3.4922-2.5234 4.5156-1.0312 0.94531-2.3008 1.5977-3.6719 1.8906zm-2.4961-0.60547h-3.9375v12.715h3.9375zm-9.4219 36.508h23.395c0.6875 0 1.25-0.5625 1.25-1.25s-0.5625-1.2461-1.25-1.2461h-23.395c-0.6875 0-1.2461 0.55859-1.2461 1.2461s0.55859 1.25 1.2461 1.25zm-4.3984-7.2969h27.793c0.6875 0 1.25-0.55859 1.25-1.2461 0-0.69141-0.5625-1.25-1.25-1.25h-27.789c-0.69141 0-1.25 0.55859-1.25 1.25 0 0.6875 0.55859 1.2461 1.25 1.2461zm0-7.2969h27.793c0.6875 0 1.25-0.55859 1.25-1.2461 0-0.69141-0.5625-1.25-1.25-1.25h-27.789c-0.69141 0-1.25 0.55859-1.25 1.25 0 0.6875 0.55859 1.2461 1.25 1.2461zm2.1758-11.477v-22.656 0.003906c0-0.93359-0.75391-1.6875-1.6875-1.6875h-34.164c-0.92969 0-1.6836 0.75391-1.6875 1.6875v26.668c0.003906 0.92969 0.75781 1.6836 1.6875 1.6875h26.305v-1.5195c0.007813-2.3086 1.8789-4.1758 4.1875-4.1836zm-9.7148-5.8477 0.003906 0.003906c1.2383-0.71875 2.0039-2.043 2.0039-3.4766 0-1.4375-0.76562-2.7617-2.0039-3.4766l-14.098-8.1367c-1.2422-0.71875-2.7734-0.72266-4.0156-0.003906-1.2461 0.71875-2.0117 2.0469-2.0078 3.4805v16.273-0.003906c0 1.418 0.75 2.7344 1.9688 3.4531 1.2227 0.72266 2.7305 0.74609 3.9727 0.0625l14.176-8.1797zm-1.25-2.1484 0.003906 0.003906c0.46875-0.27734 0.75781-0.78125 0.75781-1.3242 0-0.54688-0.28906-1.0469-0.75781-1.3242l-14.09-8.1406c0.10156-0.17188-1.0586-0.27344-1.5234 0h-0.003907c-0.47656 0.26953-0.76953 0.78125-0.75781 1.3281v16.273-0.003906c-0.011719 0.55078 0.28125 1.0586 0.75781 1.3281 0.45703 0.26172 1.0156 0.26953 1.4805 0.023438z" fill-rule="evenodd" fill="#ffbc5e"/>
<text x="0.0" y="117.5" font-size="5.0" font-weight="bold" font-family="Arbeit Regular, Helvetica, Arial-Unicode, Arial, Sans-serif" fill="#ffbc5e"></text><text x="0.0" y="122.5" font-size="5.0" font-weight="bold" font-family="Arbeit Regular, Helvetica, Arial-Unicode, Arial, Sans-serif" fill="#ffbc5e"></text></svg>