<svg xmlns="http://www.w3.org/2000/svg" version="1.1" viewBox="-5.0 -10.0 110.0 135.0">
 <path d="m10 41.285c0-0.32812 0.13281-0.64844 0.36719-0.88281 0.23437-0.23438 0.55078-0.36719 0.88281-0.36719h27.277c0.6875 0 1.25 0.5625 1.25 1.25 0 0.69141-0.5625 1.25-1.25 1.25h-27.277c-0.69141 0-1.25-0.55859-1.25-1.25zm1.25 6.0273h27.277c0.6875 0 1.25-0.55859 1.25-1.25 0-0.6875-0.5625-1.25-1.25-1.25h-27.277c-0.69141 0-1.25 0.5625-1.25 1.25 0 0.69141 0.55859 1.25 1.25 1.25zm74.91-24.328v23.078c0 0.33203-0.13281 0.65234-0.36719 0.88672s-0.55078 0.36328-0.88281 0.36328h-6.1172c-0.69141 0-1.25-0.55859-1.25-1.25v-23.078c0-0.69141 0.55859-1.25 1.25-1.25h6.1172c0.33203 0 0.64844 0.12891 0.88281 0.36328s0.36719 0.55469 0.36719 0.88672zm-2.5 1.25h-3.6172v20.578h3.6172zm-39.043 2.0156c0-1.5547 0.84375-2.9922 2.2031-3.7461 1.3633-0.75781 3.0273-0.71484 4.3477 0.10938l4.8125-4.207c-0.53125-1.1797-0.5-2.5352 0.085937-3.6914 0.58203-1.1523 1.6602-1.9805 2.9258-2.2539 1.2656-0.26953 2.582 0.046874 3.5898 0.85937 1.0078 0.8125 1.5898 2.0391 1.5898 3.332 0 0.22656-0.015625 0.45312-0.050781 0.67578l3.6172 1.7656-0.003906-0.003906c1.5-1.6133 3.9805-1.8242 5.7305-0.48828l4.3281-3.1172 0.003906 0.003906c-0.6875-2.0117 0.20312-4.2227 2.0938-5.1992 1.8867-0.97266 4.207-0.41797 5.4492 1.3047 1.2422 1.7266 1.0312 4.1016-0.49219 5.5859-1.5195 1.4805-3.9023 1.625-5.5898 0.33594l-4.3281 3.1133-0.003907 0.003906c0.42188 1.2461 0.25 2.6211-0.47266 3.7227-0.72266 1.1016-1.9102 1.8125-3.2227 1.9219-1.3164 0.10938-2.6055-0.38672-3.5039-1.3555-0.89453-0.96484-1.2969-2.2891-1.0898-3.5898l-3.6172-1.7656c-1.3945 1.5039-3.6602 1.8086-5.3984 0.71875l-4.8086 4.2148c0.53125 1.1797 0.5 2.5391-0.085938 3.6914-0.58594 1.1562-1.6602 1.9844-2.9258 2.2539-1.2656 0.26953-2.5859-0.042968-3.5898-0.85937-1.0078-0.8125-1.5938-2.0352-1.5938-3.332zm35.449-12.141c0 0.72266 0.43359 1.3711 1.1016 1.6484 0.66797 0.27734 1.4375 0.125 1.9453-0.38672 0.51172-0.50781 0.66406-1.2773 0.39062-1.9453-0.27734-0.66797-0.92969-1.1016-1.6523-1.1016-0.98437 0-1.7852 0.79688-1.7852 1.7852zm-10.98 7.8984c0 0.72266 0.43359 1.375 1.1016 1.6484 0.66797 0.27734 1.4336 0.125 1.9453-0.38672 0.51172-0.51172 0.66406-1.2773 0.38672-1.9453-0.27734-0.66797-0.92969-1.1016-1.6523-1.1016-0.98438 0-1.7812 0.80078-1.7812 1.7891zm-10.984-5.3555c0 0.72266 0.43359 1.375 1.1016 1.6523 0.66797 0.27344 1.4336 0.12109 1.9453-0.39063 0.51172-0.50781 0.66406-1.2773 0.38672-1.9453s-0.92578-1.1016-1.6484-1.1016c-0.98828 0-1.7852 0.80078-1.7852 1.7852zm-10.984 9.6016c0 0.72266 0.43359 1.3711 1.1016 1.6484s1.4375 0.125 1.9453-0.38672c0.51172-0.51172 0.66406-1.2773 0.39063-1.9453-0.27734-0.66797-0.92969-1.1016-1.6523-1.1016-0.98438 0-1.7812 0.79688-1.7852 1.7812zm24.676 31.93c0 5.4922-3.3086 10.449-8.3828 12.551-5.0781 2.1016-10.922 0.94141-14.805-2.9453-3.8867-3.8867-5.0469-9.7266-2.9453-14.805 2.1016-5.0742 7.0547-8.3867 12.551-8.3828 7.4961 0.007813 13.574 6.082 13.582 13.582zm-2.5 0c0-4.4844-2.6992-8.5273-6.8398-10.242-4.1445-1.7148-8.9102-0.76562-12.082 2.4062-3.168 3.168-4.1172 7.9375-2.4023 12.078 1.7188 4.1406 5.7578 6.8398 10.242 6.8398 6.1172-0.007813 11.074-4.9648 11.082-11.082zm24.105 35.191c-2.1367 2.1289-5.5898 2.1289-7.7266 0l-10.523-10.527c-0.88281-0.87891-1.4375-2.0391-1.5664-3.2773-0.21875 0.16797-0.48438 0.26172-0.76172 0.25781h-45.641c-0.33203 0.003906-0.65234-0.12891-0.88672-0.36328s-0.36328-0.55469-0.36328-0.88672v-3.9609c0-2.8789 2.332-5.2148 5.2109-5.2188h3.0703l2.5469-7.6328-30.508 0.003906c-0.69141 0-1.25-0.55859-1.25-1.25v-54.242c0-0.32812 0.13281-0.64844 0.36719-0.88281 0.23437-0.23438 0.55078-0.36719 0.88281-0.36719h87.5c0.33203 0 0.64844 0.13281 0.88281 0.36719 0.23438 0.23438 0.36719 0.55469 0.36719 0.88281v54.242c0 0.33203-0.13281 0.65234-0.36719 0.88672-0.23437 0.23438-0.55078 0.36328-0.88281 0.36328h-18.102c-0.46094 2.2734-1.3633 4.4297-2.6562 6.3516l5.4336 5.4336c1.6445-0.17969 3.2812 0.39844 4.4531 1.5664l10.52 10.527c2.1328 2.1367 2.1328 5.5938 0 7.7266zm-21.957-23.27c-0.20703 0.22656-0.41797 0.45312-0.63672 0.67188s-0.44141 0.43359-0.67188 0.63672l4.418 4.418c0.17969-0.25391 0.37891-0.49219 0.60156-0.71094 0.21875-0.21875 0.45703-0.42188 0.71094-0.60156zm-2.4062-22.746c-2.8711-2.8672-6.7617-4.4766-10.816-4.4766-4.0586 0.003907-7.9492 1.6133-10.816 4.4844-2.8672 2.8672-4.4766 6.7578-4.4766 10.816 0 4.0547 1.6094 7.9453 4.4766 10.816 2.8672 2.8672 6.7578 4.4805 10.816 4.4844 4.0547 0 7.9453-1.6094 10.816-4.4766 2.8672-2.8711 4.4766-6.7656 4.4766-10.824s-1.6094-7.9531-4.4766-10.824zm-18.32-10.984h-3.6133v7.8906c1.1094-0.88672 2.3242-1.6406 3.6133-2.2383zm10.98-9.6016-3.6172 0.003906v13.605c1.2148-0.007812 2.4258 0.10547 3.6172 0.33984zm10.98 18.039v-12.676h-3.6133v11.922c0.3125 0.23828 0.61719 0.48828 0.91406 0.75391zm19.824 14.457v-6.7344h-17.398c0.71875 2.168 1.0156 4.457 0.87891 6.7344zm-85-51.742v42.508h34.871c0.64062-1.2422 1.4219-2.4062 2.3359-3.4648-0.074219-0.15625-0.10938-0.33203-0.10938-0.50781v-10.938c0-0.6875 0.55859-1.25 1.25-1.25h6.1172c0.32812 0 0.64844 0.13281 0.88281 0.36719 0.23438 0.23437 0.36719 0.55078 0.36719 0.88281v5.9688c0.77344-0.22656 1.5664-0.39844 2.3633-0.51562v-15.051c0-0.69141 0.55859-1.25 1.25-1.25h6.1172c0.33203 0 0.64844 0.13281 0.88281 0.36719s0.36719 0.55078 0.36719 0.88281v15.883c0.8125 0.28906 1.6055 0.63672 2.3672 1.043v-11.566c0-0.69141 0.55859-1.25 1.25-1.25h6.1172-0.003907c0.33203-0.003907 0.65234 0.12891 0.88672 0.36328s0.36328 0.55469 0.36328 0.88672v15.176c0 0.33203-0.12891 0.65234-0.36328 0.88672s-0.55469 0.36328-0.88672 0.36328h-1.6055c0.65625 0.85547 1.2344 1.7656 1.7266 2.7227h18.453v-42.508zm0 51.742h32.941c-0.13672-2.2773 0.16016-4.5664 0.88281-6.7344h-33.824zm29.348 10.129h7.5312c-1.7969-2.2148-3.0352-4.832-3.6016-7.6289h-1.3828zm34.723 7.9297v-0.94531l-3.4219-3.4219v0.003906c-3.1914 2.1367-6.9883 3.1875-10.824 2.9961-3.8359-0.19141-7.5078-1.6172-10.469-4.0625h-15.715c-1.4961 0.003906-2.7109 1.2188-2.7109 2.7148v2.7148zm20.066 10.086-10.527-10.523c-1.1602-1.1562-3.0352-1.1562-4.1953 0-1.1523 1.1562-1.1523 3.0312 0 4.1914l10.527 10.527c1.1602 1.1562 3.0352 1.1562 4.1953 0 1.1562-1.1602 1.1562-3.0352 0-4.1953zm-79.305-61.855c0-5.0781 3.0586-9.6562 7.75-11.598 4.6914-1.9453 10.094-0.87109 13.684 2.7227 3.5898 3.5898 4.6641 8.9883 2.7188 13.68-1.9414 4.6914-6.5195 7.75-11.598 7.75-6.9297-0.007812-12.547-5.6211-12.555-12.555zm13.805 9.9727v0.003906c2.1836-0.27344 4.2148-1.2578 5.7852-2.8008l-5.7852-5.7852zm0-19.949v7.8281l7.3516 7.3516v0.003906c1.7656-2.9141 1.9336-6.5234 0.44922-9.5898-1.4844-3.0625-4.4219-5.168-7.8008-5.5898zm-11.301 9.9766c0.007812 5.0664 3.7812 9.3398 8.8047 9.9766v-19.949c-5.0273 0.63281-8.8008 4.9062-8.8086 9.9727z" fill="#ffbc5e"/>
<text x="0.0" y="117.5" font-size="5.0" font-weight="bold" font-family="Arbeit Regular, Helvetica, Arial-Unicode, Arial, Sans-serif" fill="#ffbc5e"></text><text x="0.0" y="122.5" font-size="5.0" font-weight="bold" font-family="Arbeit Regular, Helvetica, Arial-Unicode, Arial, Sans-serif" fill="#ffbc5e"></text></svg>